<svg width="320" height="293" viewBox="0 0 320 293" fill="none" xmlns="http://www.w3.org/2000/svg">
<path d="M176.454 138.817C176.454 148.718 168.598 156.745 158.907 156.745C149.215 156.745 141.359 148.718 141.359 138.817C141.359 128.915 149.215 120.888 158.907 120.888C168.598 120.888 176.454 128.915 176.454 138.817Z" fill="#E16401"/>
<path d="M108.531 174.434C113.602 171.565 118.719 178.221 114.592 182.316L94.5226 202.228L70.399 221.354C65.6848 225.092 59.5282 218.819 63.4015 214.225L85.8151 187.639C86.1938 187.19 86.6501 186.811 87.1627 186.521L108.531 174.434Z" fill="#FA9703"/>
<path d="M157.223 103.416C155.464 110.269 145.802 110.468 143.744 103.692L118.473 20.5095C117.266 16.5387 119.757 12.4011 123.829 11.6122L172.887 2.10702C177.936 1.12887 182.288 5.74786 181.01 10.7278L157.223 103.416Z" fill="#DF6202"/>
<path d="M251.388 98.8612C252.84 97.7595 254.72 97.3807 256.495 97.8322L294.347 107.462C300.518 109.032 300.379 117.83 294.162 119.134L224.308 133.79C218.041 135.105 214.297 127.009 219.387 123.147L251.388 98.8612Z" fill="#B93F02"/>
<path d="M294.64 111.329C302.408 109.556 309.426 116.374 307.878 124.19L300.882 159.525C299.646 165.765 293.392 169.659 287.248 168.015L219.204 149.808C208.119 146.842 208.412 131.011 219.6 128.458L294.64 111.329Z" fill="#E16802"/>
<path d="M244.128 167.953C245.944 168.449 247.421 169.767 248.119 171.515L270.853 228.421C273.277 234.488 265.632 239.51 261.026 234.876L191.857 165.29C187.525 160.932 191.765 153.653 197.693 155.272L244.128 167.953Z" fill="#E87502"/>
<path d="M196.38 175.52C193.499 171.666 198.625 166.942 202.232 170.127L225.871 191.006L251.314 220.067C254.493 223.698 249.712 228.81 245.876 225.88L218.695 205.116C218.401 204.892 218.14 204.628 217.919 204.333L196.38 175.52Z" fill="#FB9903"/>
<path d="M148.823 175.988C150.91 168.226 161.858 168.044 164.201 175.733L189.59 259.048C190.834 263.131 188.653 267.472 184.634 268.911L131.756 287.846C125.677 290.023 119.657 284.473 121.333 278.238L148.823 175.988Z" fill="#FA9703"/>
<path d="M159.666 179.547C158.164 174.499 164.474 170.873 168.091 174.704L201.937 210.556C203.204 211.899 203.631 213.827 203.048 215.575L190.794 252.321C189.248 256.955 182.651 256.833 181.257 252.145L159.666 179.547Z" fill="#BA3D02"/>
<path d="M3.26703 116.754C1.77802 110.942 6.97889 105.621 12.8234 106.975L110.654 129.654C118.852 131.555 118.934 143.199 110.763 145.215L24.2148 166.569C19.9521 167.621 15.6383 165.041 14.5487 160.788L3.26703 116.754Z" fill="#E87502"/>
<path d="M52.2608 163.412C44.4057 160.918 44.9976 149.611 53.0701 147.951L110.132 136.215C118.395 134.516 123.322 145.108 116.698 150.333L89.7121 171.617C87.6286 173.26 84.8659 173.764 82.3369 172.961L52.2608 163.412Z" fill="#B83E03"/>
<path d="M112.25 18.6618C113.861 14.0619 120.429 14.2491 121.775 18.9333L142.01 89.3602C143.475 94.4601 137.034 98.0297 133.486 94.0839L101.176 58.1485C99.9554 56.791 99.5717 54.8763 100.175 53.1533L112.25 18.6618Z" fill="#BA3D02"/>
<path d="M118.847 177.904C124.704 172.758 133.711 178.176 131.911 185.761L123.202 222.453C122.565 225.138 120.589 227.305 117.973 228.187L64.3403 246.261C56.0577 249.052 49.9392 238.438 56.5056 232.669L118.847 177.904Z" fill="#D85701"/>
<path d="M41.5087 42.6051C39.9155 38.6261 44.8487 35.2674 47.9667 38.2084L126.004 111.815C129.058 114.696 126.178 119.735 122.145 118.566L67.2027 102.637C66.0198 102.294 65.0609 101.425 64.6032 100.282L41.5087 42.6051Z" fill="#B83E03"/>
<path d="M96.1704 65.0971C96.3686 65.2247 96.5426 65.3864 96.6845 65.5747L131.09 111.223C132.536 113.141 129.992 115.512 128.18 113.936L86.1163 77.3441L51.0179 40.7067C49.3778 38.9947 51.5519 36.358 53.5451 37.6418L96.1704 65.0971Z" fill="#FA9803"/>
<path d="M219.048 26.6557C225.062 23.0649 232.287 29.4429 229.224 35.6397L207.512 79.5728L191.373 112.436C188.29 118.714 178.611 116.915 177.909 109.934L172.771 58.7937C172.509 56.187 173.778 53.6838 176.051 52.3271L219.048 26.6557Z" fill="#FA9703"/>
<path d="M224.926 41.8363C226.955 37.6993 233.014 38.1858 234.251 42.585L244.014 77.3109C244.58 79.3256 243.815 81.4928 242.1 82.733L200.575 112.761C196.339 115.824 190.869 111.269 193.164 106.59L224.926 41.8363Z" fill="#B83E03"/>
</svg>
