<svg width="211" height="211" viewBox="0 0 211 211" fill="none" xmlns="http://www.w3.org/2000/svg">
<path d="M109 100C109 104.97 104.971 109 100 109C95.0293 109 91 104.97 91 100C91 95.0295 95.0293 91 100 91C104.971 91 109 95.0295 109 100Z" fill="#E16401"/>
<path d="M73.6567 125.253C75.7205 124.014 77.8034 126.89 76.1235 128.66L55.3097 150.578L28.2963 173.312C26.3772 174.927 23.871 172.216 25.4478 170.232L49.5574 139.876C49.7115 139.683 49.8972 139.519 50.1059 139.394L73.6567 125.253Z" fill="#FA9703"/>
<path d="M100.563 74.4737C99.3695 79.4088 92.8142 79.5521 91.418 74.6724L74.2727 14.7697C73.4538 11.9102 75.1438 8.93052 77.9065 8.3624L111.19 1.51737C114.616 0.812971 117.568 4.13927 116.701 7.72551L100.563 74.4737Z" fill="#DF6202"/>
<path d="M164.45 71.1936C165.435 70.4002 166.71 70.1274 167.915 70.4526L193.596 77.3873C197.782 78.5179 197.688 84.8537 193.47 85.7928L146.077 96.3471C141.825 97.2941 139.285 91.4638 142.738 88.6827L164.45 71.1936Z" fill="#B93F02"/>
<path d="M198.892 78.937C201.767 78.2406 204.364 80.9188 203.791 83.9887L197.325 118.653C196.868 121.105 194.554 122.634 192.28 121.988L129.392 104.127C125.289 102.961 125.398 96.7431 129.538 95.7399L198.892 78.937Z" fill="#E16802"/>
<path d="M159.524 120.949C160.756 121.306 161.758 122.256 162.232 123.514L177.657 164.494C179.301 168.863 174.114 172.48 170.989 169.144L124.061 119.031C121.121 115.893 123.999 110.652 128.02 111.817L159.524 120.949Z" fill="#E87502"/>
<path d="M123.187 120.802C121.721 118.72 124.33 116.169 126.165 117.889L147.138 137.55L168.869 163.896C170.487 165.857 168.054 168.618 166.102 167.036L142.194 147.651C142.044 147.53 141.911 147.387 141.799 147.227L123.187 120.802Z" fill="#FB9903"/>
<path d="M96.0925 121.885C97.1543 117.692 102.725 117.594 103.918 121.747L122.899 187.863C123.533 190.069 122.423 192.413 120.378 193.19L80.8435 208.217C77.7504 209.393 74.6872 206.395 75.54 203.027L96.0925 121.885Z" fill="#FA9703"/>
<path d="M103.031 132.193C101.809 127.831 106.946 124.697 109.891 128.009L130.62 151.316C131.652 152.475 131.999 154.142 131.525 155.652L124.019 179.541C122.761 183.545 117.39 183.44 116.255 179.388L103.031 132.193Z" fill="#BA3D02"/>
<path d="M1.66239 83.2362C0.90472 80.0971 3.55114 77.2231 6.52505 77.9547L80.5986 96.1814C84.7697 97.2076 84.8118 103.497 80.6542 104.585L15.1229 121.748C12.9539 122.316 10.7589 120.922 10.2044 118.625L1.66239 83.2362Z" fill="#E87502"/>
<path d="M19.2439 123.074C15.2469 121.728 15.548 115.621 19.6557 114.724L69.0791 103.935C73.2835 103.018 75.7904 108.738 72.4198 111.56L49.0465 131.128C47.9863 132.015 46.5806 132.288 45.2937 131.853L19.2439 123.074Z" fill="#B83E03"/>
<path d="M70.0506 13.439C71.1436 10.1265 75.5997 10.2613 76.5129 13.6345L90.2415 64.3515C91.2354 68.0242 86.8655 70.5948 84.4583 67.7532L62.5374 41.8748C61.7093 40.8973 61.449 39.5184 61.8582 38.2776L70.0506 13.439Z" fill="#BA3D02"/>
<path d="M77.7253 125.132C80.7058 122.353 85.2888 125.279 84.3729 129.376L77.3074 160.973C76.9831 162.424 75.9776 163.595 74.6465 164.071L31.1328 179.636C26.9182 181.143 23.8049 175.41 27.1461 172.295L77.7253 125.132Z" fill="#D85701"/>
<path d="M22.0558 30.6815C20.9748 27.8161 24.3218 25.3974 26.4372 27.5153L79.3822 80.5221C81.4542 82.5968 79.5002 86.2256 76.764 85.3837L39.488 73.9127C38.6855 73.6657 38.0349 73.0399 37.7244 72.2167L22.0558 30.6815Z" fill="#B83E03"/>
<path d="M59.1413 46.8787C59.2758 46.9706 59.3938 47.087 59.4901 47.2226L82.8327 80.0956C83.8138 81.4769 82.0878 83.1843 80.8584 82.0494L52.32 55.6982L28.5073 29.3143C27.3946 28.0814 28.8696 26.1826 30.2219 27.1071L59.1413 46.8787Z" fill="#FA9803"/>
<path d="M146.528 16.6489C149.442 14.8019 152.943 18.0827 151.459 21.2701L134.682 57.3035L121.606 85.5653C120.112 88.7944 115.421 87.869 115.081 84.2777L111.029 41.4647C110.901 40.1238 111.517 38.8362 112.618 38.1384L146.528 16.6489Z" fill="#FA9703"/>
<path d="M146.496 30.1277C147.873 27.1485 151.984 27.4989 152.823 30.6669L159.447 55.6743C159.831 57.1252 159.312 58.6858 158.148 59.579L129.975 81.2032C127.101 83.409 123.39 80.1288 124.947 76.7593L146.496 30.1277Z" fill="#B83E03"/>
</svg>
