<svg width="211" height="211" viewBox="0 0 211 211" fill="none" xmlns="http://www.w3.org/2000/svg">
<ellipse cx="106.738" cy="102.167" rx="8.97214" ry="9.14828" fill="#E16401"/>
<path d="M97.7654 114.511L68.5285 144.596L28.7727 177.287L63.4237 134.659L97.7654 114.511Z" fill="#FA9703"/>
<path d="M108.771 85.5385L86.9369 11.0001L129.322 2.48274L108.771 85.5385Z" fill="#DF6202"/>
<path d="M115.246 90.6528L124.041 52.0766L187.177 30.0849L151.212 60.3689L115.246 90.6528Z" fill="#D55401"/>
<path d="M115.246 90.6528L151.908 70.6213L187.177 30.0849L151.212 60.3689L115.246 90.6528Z" fill="#F99102"/>
<path d="M157.383 69.5187L198.625 80.4003L122.516 96.9619L157.383 69.5187Z" fill="#B93F02"/>
<path d="M211 84.0282L203.111 125.353L126.383 104.06L211 84.0282Z" fill="#E16802"/>
<path d="M163.355 123.303L185.167 179.927L118.804 110.684L163.355 123.303Z" fill="#E87502"/>
<path d="M119.577 111L185.166 179.811L147.886 150.274L119.577 111Z" fill="#FB9903"/>
<path d="M105.809 117.309L128.24 193.65L81.5227 211L105.809 117.309Z" fill="#E26702"/>
<path d="M112.306 116.047L142.781 151.694L130.251 186.867L112.306 116.047Z" fill="#B73C02"/>
<path d="M0 78.0343L89.8761 99.6432L10.3644 119.99L0 78.0343Z" fill="#E87502"/>
<path d="M16.3974 123.618L91.8243 107.53L56.1532 136.709L16.3974 123.618Z" fill="#B83E03"/>
<path d="M83.0697 19.6747L102.251 88.9177L71.6224 53.5864L83.0697 19.6747Z" fill="#BA3D02"/>
<path d="M97.9201 114.312L88.1745 156.899L28.154 177.877L97.9201 114.312Z" fill="#D85701"/>
<path d="M30.165 30.2426L94.981 93.6496L49.3469 79.9272L30.165 30.2426Z" fill="#EE7D01"/>
<path d="M66.2083 54.2587L95.1357 94.0645L59.7112 62.1038L30.3197 30.2839L66.2083 54.2587Z" fill="#FA9803"/>
</svg>
